<svg width="500pt" height="500pt" viewBox="0 0 500 500">
<g enable-background="new">
<g id="Layer-1" data-name="Layer 1">
<path transform="matrix(1,0,0,-1,129.9512,226.668)" d="M 0 0 L 0 -42.071 L 31.45 -21.036 Z " />
<path transform="matrix(1,0,0,-1,238.5024,196.1304)" d="M 0 0 L 0 58.628 L -98.487 -7.025 L -54.493 -36.455 Z " />
<path transform="matrix(1,0,0,-1,362.1309,203.1553)" d="M 0 0 L -98.488 65.653 L -98.488 7.025 L -43.991 -29.43 Z " />
<path transform="matrix(1,0,0,-1,140.0151,292.252)" d="M 0 0 L 98.487 -65.653 L 98.487 -7.024 L 43.995 29.422 Z " />
<path transform="matrix(1,0,0,-1,263.6426,299.2764)" d="M 0 0 L 0 -58.629 L 98.488 7.024 L 54.497 36.446 Z " />
<path transform="matrix(1,0,0,-1,251.0713,217.96631)" d="M 0 0 L -44.457 -29.737 L 0 -59.475 L 44.46 -29.737 Z " />
<clipPath id="cp0">
<path transform="matrix(1,0,0,-1,0,500)" d="M 0 500 L 500 500 L 500 0 L 0 0 Z "/>
</clipPath>
<g clip-path="url(#cp0)">
<path transform="matrix(1,0,0,-1,397.3311,292.26759)" d="M 0 0 C 0 -.554 -.039 -1.1 -.112 -1.646 C -.139 -1.823 -.182 -2.008 -.212 -2.185 C -.277 -2.539 -.339 -2.893 -.432 -3.239 C -.485 -3.447 -.562 -3.646 -.628 -3.847 C -.728 -4.154 -.827 -4.463 -.95 -4.771 C -1.035 -4.978 -1.14 -5.178 -1.231 -5.378 C -1.366 -5.663 -1.505 -5.939 -1.658 -6.217 C -1.771 -6.409 -1.897 -6.602 -2.017 -6.794 C -2.186 -7.056 -2.358 -7.31 -2.547 -7.556 C -2.686 -7.748 -2.828 -7.925 -2.981 -8.102 C -3.178 -8.332 -3.386 -8.563 -3.605 -8.778 C -3.771 -8.948 -3.933 -9.117 -4.105 -9.271 C -4.332 -9.479 -4.574 -9.679 -4.82 -9.871 C -5.006 -10.018 -5.19 -10.164 -5.387 -10.302 C -5.459 -10.349 -5.524 -10.41 -5.598 -10.456 L -139.285 -99.584 C -141.397 -100.992 -143.825 -101.699 -146.26 -101.699 C -148.687 -101.699 -151.119 -100.992 -153.231 -99.584 L -286.922 -10.456 C -286.992 -10.41 -287.057 -10.349 -287.126 -10.302 C -287.323 -10.164 -287.511 -10.018 -287.696 -9.871 C -287.942 -9.679 -288.181 -9.479 -288.408 -9.271 C -288.581 -9.117 -288.746 -8.948 -288.912 -8.778 C -289.131 -8.563 -289.334 -8.332 -289.539 -8.102 C -289.685 -7.925 -289.831 -7.748 -289.969 -7.556 C -290.154 -7.31 -290.331 -7.056 -290.497 -6.794 C -290.624 -6.602 -290.743 -6.409 -290.858 -6.217 C -291.012 -5.939 -291.15 -5.663 -291.285 -5.378 C -291.381 -5.178 -291.478 -4.978 -291.566 -4.771 C -291.689 -4.463 -291.793 -4.154 -291.889 -3.847 C -291.958 -3.646 -292.027 -3.447 -292.085 -3.239 C -292.178 -2.893 -292.239 -2.539 -292.305 -2.185 C -292.335 -2.008 -292.381 -1.823 -292.405 -1.646 C -292.478 -1.1 -292.52 -.554 -292.52 0 L -292.52 89.128 C -292.52 89.682 -292.478 90.228 -292.405 90.767 C -292.381 90.951 -292.335 91.128 -292.305 91.313 C -292.239 91.667 -292.178 92.021 -292.085 92.367 C -292.027 92.575 -291.958 92.775 -291.889 92.975 C -291.793 93.283 -291.689 93.59 -291.566 93.891 C -291.478 94.098 -291.381 94.306 -291.285 94.506 C -291.15 94.791 -291.012 95.068 -290.858 95.337 C -290.743 95.537 -290.624 95.729 -290.497 95.922 C -290.331 96.183 -290.154 96.437 -289.969 96.684 C -289.831 96.868 -289.685 97.053 -289.539 97.229 C -289.334 97.46 -289.131 97.691 -288.912 97.907 C -288.746 98.076 -288.581 98.245 -288.408 98.399 C -288.181 98.607 -287.942 98.807 -287.696 99 C -287.511 99.146 -287.323 99.292 -287.126 99.43 C -287.057 99.477 -286.992 99.538 -286.922 99.584 L -153.231 188.712 C -149.007 191.528 -143.51 191.528 -139.285 188.712 L -5.598 99.584 C -5.524 99.538 -5.459 99.477 -5.387 99.43 C -5.19 99.292 -5.006 99.146 -4.82 99 C -4.574 98.807 -4.332 98.607 -4.105 98.399 C -3.933 98.245 -3.771 98.076 -3.605 97.907 C -3.386 97.691 -3.178 97.46 -2.981 97.229 C -2.828 97.053 -2.686 96.868 -2.547 96.684 C -2.358 96.437 -2.186 96.183 -2.017 95.922 C -1.897 95.729 -1.771 95.537 -1.658 95.337 C -1.505 95.068 -1.366 94.791 -1.231 94.506 C -1.14 94.306 -1.035 94.098 -.95 93.891 C -.827 93.59 -.728 93.283 -.628 92.975 C -.562 92.775 -.485 92.575 -.432 92.367 C -.339 92.021 -.277 91.667 -.212 91.313 C -.182 91.128 -.139 90.951 -.112 90.767 C -.039 90.228 0 89.682 0 89.128 Z M -146.26 281.113 C -276.897 281.113 -382.806 175.208 -382.806 44.564 C -382.806 -86.081 -276.897 -191.981 -146.26 -191.981 C -15.615 -191.981 90.289 -86.081 90.289 44.564 C 90.289 175.208 -15.615 281.113 -146.26 281.113 " />
<path transform="matrix(1,0,0,-1,372.1943,268.73933)" d="M 0 0 L 0 42.071 L -31.445 21.036 Z " />
</g>
</g>
</g>
</svg>
